<svg width="148" height="31" viewBox="0 0 148 31" fill="none" xmlns="http://www.w3.org/2000/svg">
<path d="M4.28662 29.5352V28.7792L7.63462 28.2392V17.2952L-1.11338 2.03115L-3.95738 1.52715V0.735156H6.87862V1.52715L3.53062 2.03115L11.0906 15.0992L18.0386 3.25516L13.7186 1.52715V0.735156H21.7826V1.52715L19.0106 3.29116L11.5226 16.1072V28.2392L14.8706 28.7792V29.5352H4.28662ZM23.4108 29.5352V28.7792L26.7228 28.2392V2.03115L23.4108 1.52715V0.735156H33.9948V1.52715L30.6828 2.03115V13.8392H44.3628V2.03115L41.0148 1.52715V0.735156H51.6708V1.52715L48.3228 2.03115V28.2392L51.6708 28.7792V29.5352H41.0148V28.7792L44.3628 28.2392V14.7392H30.6828V28.2392L33.9948 28.7792V29.5352H23.4108ZM69.7152 30.2552C67.0992 30.2552 64.7592 29.6192 62.6952 28.3472C60.6312 27.0752 59.0232 25.2992 57.8712 23.0192C56.7192 20.7152 56.1432 18.0872 56.1432 15.1352C56.1432 12.1832 56.7192 9.56716 57.8712 7.28716C59.0232 4.98315 60.6312 3.19515 62.6952 1.92316C64.7592 0.651155 67.0992 0.0151544 69.7152 0.0151544C72.3312 0.0151544 74.6712 0.651155 76.7352 1.92316C78.7992 3.19515 80.4072 4.98315 81.5592 7.28716C82.7112 9.56716 83.2872 12.1832 83.2872 15.1352C83.2872 18.0872 82.7112 20.7152 81.5592 23.0192C80.4072 25.2992 78.7992 27.0752 76.7352 28.3472C74.6712 29.6192 72.3312 30.2552 69.7152 30.2552ZM69.7152 29.4272C71.4432 29.4272 72.9912 28.9712 74.3592 28.0592C75.7512 27.1472 76.8432 25.8272 77.6352 24.0992C78.4272 22.3472 78.8232 20.2832 78.8232 17.9072V12.3632C78.8232 9.98716 78.4272 7.93516 77.6352 6.20716C76.8432 4.45516 75.7512 3.12316 74.3592 2.21115C72.9912 1.29915 71.4432 0.843154 69.7152 0.843154C67.9632 0.843154 66.4032 1.29915 65.0352 2.21115C63.6672 3.12316 62.5872 4.45516 61.7952 6.20716C61.0032 7.93516 60.6072 9.98716 60.6072 12.3632V17.9072C60.6072 20.2832 61.0032 22.3472 61.7952 24.0992C62.5872 25.8272 63.6672 27.1472 65.0352 28.0592C66.4032 28.9712 67.9632 29.4272 69.7152 29.4272ZM102.738 29.8952L92.0102 2.03115V27.3392L95.4662 28.7792V29.5352H87.7622V28.7792L91.1462 27.3392V2.03115L87.8342 1.52715V0.735156H95.7902L104.826 23.8472L114.042 0.735156H121.314V1.52715L118.002 2.03115V28.2392L121.314 28.7792V29.5352H110.73V28.7792L114.042 28.2392V3.11116L103.386 29.8952H102.738ZM125.264 29.5352V28.7792L128.576 28.2392V2.03115L125.264 1.52715V0.735156H146.936V8.97915H145.964L143.192 1.63515H132.536V14.5952H137.216L139.34 9.37516H140.276V20.7512H139.34L137.18 15.4592H132.536V28.6712H143.84L146.792 20.7512H147.728V29.5352H125.264Z" fill="white"/>
</svg>
