<svg width="149" height="31" viewBox="0 0 149 31" fill="none" xmlns="http://www.w3.org/2000/svg">
<path d="M4.78662 30V29.244L8.13462 28.704V17.76L-0.613379 2.496L-3.45738 1.992V1.2H7.37862V1.992L4.03062 2.496L11.5906 15.564L18.5386 3.72L14.2186 1.992V1.2H22.2826V1.992L19.5106 3.756L12.0226 16.572V28.704L15.3706 29.244V30H4.78662ZM23.9108 30V29.244L27.2228 28.704V2.496L23.9108 1.992V1.2H34.4948V1.992L31.1828 2.496V14.304H44.8628V2.496L41.5148 1.992V1.2H52.1708V1.992L48.8228 2.496V28.704L52.1708 29.244V30H41.5148V29.244L44.8628 28.704V15.204H31.1828V28.704L34.4948 29.244V30H23.9108ZM70.2152 30.72C67.5992 30.72 65.2592 30.084 63.1952 28.812C61.1312 27.54 59.5232 25.764 58.3712 23.484C57.2192 21.18 56.6432 18.552 56.6432 15.6C56.6432 12.648 57.2192 10.032 58.3712 7.752C59.5232 5.448 61.1312 3.66 63.1952 2.388C65.2592 1.116 67.5992 0.479998 70.2152 0.479998C72.8312 0.479998 75.1712 1.116 77.2352 2.388C79.2992 3.66 80.9072 5.448 82.0592 7.752C83.2112 10.032 83.7872 12.648 83.7872 15.6C83.7872 18.552 83.2112 21.18 82.0592 23.484C80.9072 25.764 79.2992 27.54 77.2352 28.812C75.1712 30.084 72.8312 30.72 70.2152 30.72ZM70.2152 29.892C71.9432 29.892 73.4912 29.436 74.8592 28.524C76.2512 27.612 77.3432 26.292 78.1352 24.564C78.9272 22.812 79.3232 20.748 79.3232 18.372V12.828C79.3232 10.452 78.9272 8.4 78.1352 6.672C77.3432 4.92 76.2512 3.588 74.8592 2.676C73.4912 1.764 71.9432 1.308 70.2152 1.308C68.4632 1.308 66.9032 1.764 65.5352 2.676C64.1672 3.588 63.0872 4.92 62.2952 6.672C61.5032 8.4 61.1072 10.452 61.1072 12.828V18.372C61.1072 20.748 61.5032 22.812 62.2952 24.564C63.0872 26.292 64.1672 27.612 65.5352 28.524C66.9032 29.436 68.4632 29.892 70.2152 29.892ZM103.238 30.36L92.5102 2.496V27.804L95.9662 29.244V30H88.2622V29.244L91.6462 27.804V2.496L88.3342 1.992V1.2H96.2902L105.326 24.312L114.542 1.2H121.814V1.992L118.502 2.496V28.704L121.814 29.244V30H111.23V29.244L114.542 28.704V3.576L103.886 30.36H103.238ZM125.764 30V29.244L129.076 28.704V2.496L125.764 1.992V1.2H147.436V9.444H146.464L143.692 2.1H133.036V15.06H137.716L139.84 9.84H140.776V21.216H139.84L137.68 15.924H133.036V29.136H144.34L147.292 21.216H148.228V30H125.764Z" fill="white"/>
</svg>
